name ./resultDataOpenSim/trcMotMarkerGrf/sub09/grf-04-08.mot
datacolumns 19
datarows 30
range 1.49200000 1.60800000
endheader

                time	     ground_force_vx	     ground_force_vy	     ground_force_vz	     ground_force_px	     ground_force_py	     ground_force_pz	   l_ground_force_vx	   l_ground_force_vy	   l_ground_force_vz	   l_ground_force_px	   l_ground_force_py	   l_ground_force_pz	     ground_torque_x	     ground_torque_y	     ground_torque_z	   l_ground_torque_x	   l_ground_torque_y	   l_ground_torque_z	
          1.49200000	        -27.03620727	        428.57542794	         -5.77140625	          1.01728369	          0.00000000	          0.12518251	          0.00000000	          0.00000000	          0.00000000	          0.00000000	          0.00000000	          0.00000000	          0.00000000	          2.19282266	          0.00000000	          0.00000000	          0.00000000	          0.00000000	
          1.49600000	        -23.62814393	        428.79627538	         -8.71042980	          1.01732552	          0.00000000	          0.12536512	          0.00000000	          0.00000000	          0.00000000	          0.00000000	          0.00000000	          0.00000000	          0.00000000	          1.96297851	          0.00000000	          0.00000000	          0.00000000	          0.00000000	
          1.50000000	        -21.05250008	        429.35737498	        -11.54513513	          1.01745183	          0.00000000	          0.12553527	          0.00000000	          0.00000000	          0.00000000	          0.00000000	          0.00000000	          0.00000000	          0.00000000	          1.77003607	          0.00000000	          0.00000000	          0.00000000	          0.00000000	
          1.50400000	        -19.58322578	        430.33003701	        -13.84895054	          1.01770258	          0.00000000	          0.12565159	          0.00000000	          0.00000000	          0.00000000	          0.00000000	          0.00000000	          0.00000000	          0.00000000	          1.65628644	          0.00000000	          0.00000000	          0.00000000	          0.00000000	
          1.50800000	        -19.17472709	        431.72412164	        -15.31277707	          1.01806617	          0.00000000	          0.12570493	          0.00000000	          0.00000000	          0.00000000	          0.00000000	          0.00000000	          0.00000000	          0.00000000	          1.64235305	          0.00000000	          0.00000000	          0.00000000	          0.00000000	
          1.51200000	        -19.49412303	        433.50509095	        -15.79062541	          1.01848312	          0.00000000	          0.12570360	          0.00000000	          0.00000000	          0.00000000	          0.00000000	          0.00000000	          0.00000000	          0.00000000	          1.72549469	          0.00000000	          0.00000000	          0.00000000	          0.00000000	
          1.51600000	        -20.02934936	        435.64027695	        -15.31370715	          1.01887149	          0.00000000	          0.12566143	          0.00000000	          0.00000000	          0.00000000	          0.00000000	          0.00000000	          0.00000000	          0.00000000	          1.88333182	          0.00000000	          0.00000000	          0.00000000	          0.00000000	
          1.52000000	        -20.23320701	        438.12718498	        -14.07966302	          1.01916239	          0.00000000	          0.12559867	          0.00000000	          0.00000000	          0.00000000	          0.00000000	          0.00000000	          0.00000000	          0.00000000	          2.08086274	          0.00000000	          0.00000000	          0.00000000	          0.00000000	
          1.52400000	        -19.66707961	        440.98283342	        -12.42542558	          1.01931839	          0.00000000	          0.12553656	          0.00000000	          0.00000000	          0.00000000	          0.00000000	          0.00000000	          0.00000000	          0.00000000	          2.27866169	          0.00000000	          0.00000000	          0.00000000	          0.00000000	
          1.52800000	        -18.10524585	        444.21621530	        -10.77255158	          1.01933155	          0.00000000	          0.12549634	          0.00000000	          0.00000000	          0.00000000	          0.00000000	          0.00000000	          0.00000000	          0.00000000	          2.44083625	          0.00000000	          0.00000000	          0.00000000	          0.00000000	
          1.53200000	        -15.56976380	        447.82898784	         -9.54615240	          1.01923361	          0.00000000	          0.12548660	          0.00000000	          0.00000000	          0.00000000	          0.00000000	          0.00000000	          0.00000000	          0.00000000	          2.54183659	          0.00000000	          0.00000000	          0.00000000	          0.00000000	
          1.53600000	        -12.29878497	        451.84076125	         -9.09203247	          1.01905930	          0.00000000	          0.12550600	          0.00000000	          0.00000000	          0.00000000	          0.00000000	          0.00000000	          0.00000000	          0.00000000	          2.57121267	          0.00000000	          0.00000000	          0.00000000	          0.00000000	
          1.54000000	         -8.66840690	        456.28814619	         -9.60775552	          1.01883533	          0.00000000	          0.12554589	          0.00000000	          0.00000000	          0.00000000	          0.00000000	          0.00000000	          0.00000000	          0.00000000	          2.53524368	          0.00000000	          0.00000000	          0.00000000	          0.00000000	
          1.54400000	         -5.08876173	        461.19561579	        -11.09517745	          1.01861074	          0.00000000	          0.12559624	          0.00000000	          0.00000000	          0.00000000	          0.00000000	          0.00000000	          0.00000000	          0.00000000	          2.45468430	          0.00000000	          0.00000000	          0.00000000	          0.00000000	
          1.54800000	         -1.89525622	        466.56703415	        -13.35307930	          1.01843615	          0.00000000	          0.12564838	          0.00000000	          0.00000000	          0.00000000	          0.00000000	          0.00000000	          0.00000000	          0.00000000	          2.35898381	          0.00000000	          0.00000000	          0.00000000	          0.00000000	
          1.55200000	          0.73949748	        472.40324748	        -16.01616020	          1.01833250	          0.00000000	          0.12568800	          0.00000000	          0.00000000	          0.00000000	          0.00000000	          0.00000000	          0.00000000	          0.00000000	          2.27876487	          0.00000000	          0.00000000	          0.00000000	          0.00000000	
          1.55600000	          2.84380069	        478.70784722	        -18.62795818	          1.01828708	          0.00000000	          0.12569183	          0.00000000	          0.00000000	          0.00000000	          0.00000000	          0.00000000	          0.00000000	          0.00000000	          2.23912104	          0.00000000	          0.00000000	          0.00000000	          0.00000000	
          1.56000000	          4.62594328	        485.47046118	        -20.73043911	          1.01826774	          0.00000000	          0.12563699	          0.00000000	          0.00000000	          0.00000000	          0.00000000	          0.00000000	          0.00000000	          0.00000000	          2.25578220	          0.00000000	          0.00000000	          0.00000000	          0.00000000	
          1.56400000	          6.40871447	        492.65129834	        -21.94516944	          1.01824699	          0.00000000	          0.12551282	          0.00000000	          0.00000000	          0.00000000	          0.00000000	          0.00000000	          0.00000000	          0.00000000	          2.33467517	          0.00000000	          0.00000000	          0.00000000	          0.00000000	
          1.56800000	          8.53665503	        500.19010884	        -22.03006134	          1.01820030	          0.00000000	          0.12532268	          0.00000000	          0.00000000	          0.00000000	          0.00000000	          0.00000000	          0.00000000	          0.00000000	          2.47380994	          0.00000000	          0.00000000	          0.00000000	          0.00000000	
          1.57200000	         11.27520173	        508.03686050	        -20.91429473	          1.01809370	          0.00000000	          0.12507479	          0.00000000	          0.00000000	          0.00000000	          0.00000000	          0.00000000	          0.00000000	          0.00000000	          2.66570856	          0.00000000	          0.00000000	          0.00000000	          0.00000000	
          1.57600000	         14.73097100	        516.17583035	        -18.71358889	          1.01791786	          0.00000000	          0.12477499	          0.00000000	          0.00000000	          0.00000000	          0.00000000	          0.00000000	          0.00000000	          0.00000000	          2.89908499	          0.00000000	          0.00000000	          0.00000000	          0.00000000	
          1.58000000	         18.82437927	        524.62204559	        -15.71904641	          1.01769486	          0.00000000	          0.12443377	          0.00000000	          0.00000000	          0.00000000	          0.00000000	          0.00000000	          0.00000000	          0.00000000	          3.15963840	          0.00000000	          0.00000000	          0.00000000	          0.00000000	
          1.58400000	         23.32258750	        533.39944217	        -12.35234655	          1.01746133	          0.00000000	          0.12406939	          0.00000000	          0.00000000	          0.00000000	          0.00000000	          0.00000000	          0.00000000	          0.00000000	          3.43074062	          0.00000000	          0.00000000	          0.00000000	          0.00000000	
          1.58800000	         27.91423133	        542.52290140	         -9.09048710	          1.01726242	          0.00000000	          0.12370001	          0.00000000	          0.00000000	          0.00000000	          0.00000000	          0.00000000	          0.00000000	          0.00000000	          3.69487037	          0.00000000	          0.00000000	          0.00000000	          0.00000000	
          1.59200000	         32.30138261	        551.99431611	         -6.37592646	          1.01712931	          0.00000000	          0.12334176	          0.00000000	          0.00000000	          0.00000000	          0.00000000	          0.00000000	          0.00000000	          0.00000000	          3.93591144	          0.00000000	          0.00000000	          0.00000000	          0.00000000	
          1.59600000	         36.28251435	        561.80360430	         -4.53745845	          1.01706966	          0.00000000	          0.12300436	          0.00000000	          0.00000000	          0.00000000	          0.00000000	          0.00000000	          0.00000000	          0.00000000	          4.14153882	          0.00000000	          0.00000000	          0.00000000	          0.00000000	
          1.60000000	         39.80122912	        571.91836220	         -3.74062292	          1.01707708	          0.00000000	          0.12269529	          0.00000000	          0.00000000	          0.00000000	          0.00000000	          0.00000000	          0.00000000	          0.00000000	          4.30461731	          0.00000000	          0.00000000	          0.00000000	          0.00000000	
          1.60400000	         42.95012739	        582.26741963	         -3.97001478	          1.01713774	          0.00000000	          0.12242746	          0.00000000	          0.00000000	          0.00000000	          0.00000000	          0.00000000	          0.00000000	          0.00000000	          4.42308785	          0.00000000	          0.00000000	          0.00000000	          0.00000000	
          1.60800000	         45.93999215	        592.74426270	         -5.04650463	          1.01721759	          0.00000000	          0.12221026	          0.00000000	          0.00000000	          0.00000000	          0.00000000	          0.00000000	          0.00000000	          0.00000000	          4.49878097	          0.00000000	          0.00000000	          0.00000000	          0.00000000	
